<svg width="226" height="69" viewBox="0 0 226 69" fill="none" xmlns="http://www.w3.org/2000/svg">
<path d="M72.9382 57.9604C73.0811 57.9855 73.224 58.0056 73.3694 58.0256C73.7981 58.0758 74.2369 58.0983 74.6856 58.0858C74.8637 58.0833 75.0417 58.0733 75.2222 58.0582C75.3626 58.0457 75.503 58.0331 75.6459 58.0156C76.1849 57.9504 76.6387 57.5543 76.7666 57.0278C76.917 56.4035 76.8343 55.7817 76.6813 55.1499C76.6513 55.0296 76.6212 54.9117 76.5886 54.7914C76.4858 54.4078 76.3654 54.0192 76.2677 53.6231C76.2376 53.5027 76.21 53.3799 76.1849 53.257C76.1172 52.916 76.0696 52.5726 76.0696 52.219C76.0696 52.1965 76.0721 52.1689 76.0721 52.1463C76.0796 51.9959 76.1022 51.8304 76.1373 51.6499C76.2401 51.1685 76.4356 50.5969 76.6362 50.0127L76.7089 49.7294L76.7917 49.5489C77.0725 48.6965 77.3056 47.8591 77.1978 47.2674V47.2624C77.1326 46.9114 76.9496 46.6507 76.5861 46.5228C76.5083 46.4952 76.4231 46.4726 76.3278 46.4576C76.2702 46.4576 76.2125 46.4576 76.1548 46.4601C75.6835 46.4651 75.2021 46.4752 74.7207 46.4977C74.5377 46.5077 74.3572 46.5203 74.1767 46.5328C73.5198 46.5805 72.8629 46.6557 72.2286 46.7785C72.0005 46.8211 71.7773 46.8688 71.5567 46.9239C70.594 47.1646 69.6964 47.5206 68.9367 48.0547C68.7713 48.1725 68.6233 48.2803 68.4804 48.3881C67.2118 49.3509 66.748 49.9977 65.893 50.5092C65.883 50.5618 65.8905 50.5167 65.893 50.4966C65.9006 50.4114 65.878 50.3236 65.8329 50.2459C65.7677 50.1306 65.6549 50.0378 65.532 50.0203C65.2236 50.088 64.9855 50.113 64.6771 50.108H64.5492C64.4038 50.113 64.2584 50.108 64.113 50.098C63.9299 50.0855 63.7494 50.0604 63.5664 50.0203C63.3633 50.0504 63.1828 50.281 63.2054 50.4966C63.2104 50.5167 63.2154 50.5618 63.2054 50.5092C62.9572 50.3612 62.7416 50.2008 62.5284 50.0228C62.4432 49.9526 62.3605 49.8799 62.2752 49.8047C62.0646 49.6166 61.8465 49.4135 61.5933 49.1904C61.513 49.1202 61.4278 49.045 61.3401 48.9698C61.1295 48.7893 60.8938 48.5962 60.6205 48.3906C60.5327 48.3229 60.4425 48.2552 60.3472 48.1875C60.287 48.1424 60.2269 48.0973 60.1617 48.0522C59.9135 47.8767 59.6502 47.7212 59.3744 47.5833C59.2691 47.5307 59.1563 47.478 59.0485 47.4279C58.7351 47.29 58.4117 47.1696 58.0757 47.0668C57.9504 47.0267 57.8225 46.9941 57.6946 46.959C57.3311 46.8638 56.9575 46.786 56.579 46.7234C56.4361 46.6983 56.2932 46.6757 56.1502 46.6557C55.6563 46.588 55.1524 46.5428 54.651 46.5103C54.493 46.5002 54.3351 46.4927 54.1771 46.4852C53.7208 46.4651 53.2695 46.4576 52.8232 46.4551H52.7681C52.2291 46.5378 51.9733 46.8362 51.8956 47.2599C51.8379 47.5783 51.8781 47.9719 51.9733 48.3981C52.0009 48.516 52.031 48.6388 52.0636 48.7592C52.1639 49.1277 52.2917 49.5138 52.4221 49.8974C52.4622 50.0102 52.4998 50.1231 52.5374 50.2359C52.6477 50.5618 52.7556 50.8802 52.8408 51.1786C52.8759 51.3039 52.9085 51.4193 52.9336 51.5371C52.9912 51.7878 53.0288 52.0185 53.0288 52.219C53.0288 52.3745 53.0188 52.5299 53.0013 52.6854C52.9837 52.8559 52.9586 53.0238 52.926 53.1893C52.8007 53.8286 52.5926 54.4479 52.4397 55.0597C52.377 55.3129 52.3243 55.5586 52.2892 55.8093C52.2341 56.2004 52.2366 56.6016 52.3218 56.9877C52.3369 57.0579 52.3544 57.1256 52.377 57.1958C52.4497 57.4289 52.555 57.6646 52.7029 57.8978C52.7756 57.9128 52.8433 57.9228 52.916 57.9354C53.0589 57.9629 53.2018 57.9855 53.3422 58.0056C53.8813 58.0783 54.4053 58.1033 54.9142 58.0883C55.0972 58.0858 55.2778 58.0707 55.4558 58.0557C56.0675 58.0005 56.6542 57.8902 57.2208 57.7298C57.4991 57.6521 57.7699 57.5593 58.0356 57.459C58.7802 57.1807 59.4823 56.8197 60.1441 56.4135C60.9264 55.9271 61.4805 55.4157 61.9994 54.9468C62.1047 54.8741 62.2928 54.8114 62.531 54.7588C62.7115 54.7212 62.9221 54.6861 63.1502 54.661C63.5815 54.6109 64.0754 54.5833 64.5442 54.5858C64.662 54.5858 64.7824 54.5858 64.9002 54.5908C65.0607 54.5958 65.2211 54.6008 65.3791 54.6134C65.8329 54.6435 66.2616 54.6961 66.5875 54.7688C66.7355 54.8039 66.8633 54.8415 66.9586 54.8842C67.0087 54.9042 67.0513 54.9268 67.0864 54.9493C67.2745 55.1173 67.465 55.2928 67.6706 55.4708L67.6756 55.4683C67.7609 55.5385 67.8461 55.6087 67.9339 55.6814L67.9289 55.6864C68.1971 55.9071 68.498 56.1302 68.8364 56.3458C68.8715 56.3684 68.9067 56.391 68.9418 56.416C69.0044 56.4536 69.0671 56.4912 69.1298 56.5263C69.4056 56.6943 69.6914 56.8473 69.9822 56.9927C70.0875 57.0478 70.1978 57.1005 70.3056 57.1506C70.614 57.291 70.9299 57.4214 71.2508 57.5367C71.3712 57.5793 71.494 57.6195 71.6169 57.6571C72.0531 57.7799 72.4894 57.8877 72.9382 57.9604Z" fill="#1C1C1C"/>
<path d="M52.7806 45.5475H52.8358C53.3774 45.5525 53.8136 45.5626 54.2172 45.5801C54.3777 45.5876 54.5407 45.5952 54.7011 45.6052C55.2677 45.6403 55.7742 45.6904 56.2531 45.7556C56.4035 45.7757 56.5539 45.8008 56.7043 45.8258C57.0528 45.8835 57.3863 45.9537 57.7022 46.0339C57.0127 44.0282 56.6667 41.5887 56.6667 38.7205C56.6667 35.2356 57.1331 32.3599 58.0682 30.0909C59.4096 26.8517 61.5607 25.2295 64.5242 25.2295C66.6753 25.2295 68.3601 26.102 69.5786 27.842C71.4865 30.5572 72.4418 34.2628 72.4418 38.9612C72.4418 41.7417 72.186 44.0783 71.6771 45.9712C71.82 45.9386 71.9654 45.9061 72.1108 45.8785C72.7251 45.7606 73.3895 45.6779 74.1341 45.6227C74.3196 45.6102 74.5026 45.5977 74.6882 45.5876C75.1294 45.5651 75.6083 45.5525 76.1523 45.5475C76.2376 45.545 76.3379 45.5375 76.4357 45.5525C76.4908 45.5601 76.5435 45.5726 76.5961 45.5851C77.6441 43.5594 78.1681 41.2929 78.1681 38.7782C78.1681 34.6865 76.8794 31.2517 74.2996 28.4763C71.7197 25.7009 68.5231 24.3144 64.7072 24.3144C60.6882 24.3144 57.3888 25.6407 54.8114 28.2958C52.2316 30.9509 50.9429 34.3631 50.9429 38.535C50.9429 41.1374 51.5145 43.4766 52.6503 45.5601C52.6603 45.5576 52.6703 45.5551 52.6804 45.5525C52.713 45.55 52.7481 45.5475 52.7806 45.5475Z" fill="#4C4B4B"/>
<path d="M109.886 24.7782C109.886 25.0866 109.5 25.2245 108.733 25.1944H107.717H106.888C106.396 25.1944 106.103 25.2797 106.01 25.4476C105.917 25.6156 105.872 26.1321 105.872 26.992V53.5328C105.872 55.1599 105.857 56.1127 105.827 56.3884C105.797 56.6642 105.704 56.8021 105.551 56.8021C105.366 56.8021 105.153 56.6316 104.907 56.2932L99.01 47.656C95.5903 42.6417 91.4334 36.3788 86.5369 28.8724V54.6334C86.567 55.0346 86.8002 55.2878 87.2364 55.3956C87.6727 55.5034 88.7131 55.5736 90.3603 55.6037C90.764 55.6037 90.9671 55.7265 90.9671 55.9722C90.9671 56.2806 90.5659 56.4336 89.7661 56.4336C89.4904 56.4336 88.6128 56.3884 87.1361 56.2957C86.6447 56.2656 86.1659 56.2505 85.7046 56.2505C85.7346 56.2505 85.4664 56.2806 84.8972 56.3433C84.3281 56.4035 83.4581 56.4361 82.2898 56.4361H81.8285C81.1215 56.4361 80.768 56.2982 80.768 56.0199C80.768 55.7441 81.0763 55.6037 81.6906 55.6037C83.5058 55.5736 84.5588 55.4583 84.8521 55.2577C85.1429 55.0571 85.2909 54.4028 85.2909 53.2946V30.5096C85.2909 27.9523 84.7669 26.3502 83.7214 25.7034C83.23 25.395 82.3525 25.242 81.0914 25.242C80.2916 25.242 79.8905 25.0816 79.8905 24.7557C79.8905 24.4648 80.1211 24.3194 80.5824 24.3194C81.1967 24.3194 81.9814 24.3495 82.9366 24.4122C83.8894 24.4749 84.3983 24.5049 84.4585 24.5049C84.5513 24.5049 84.9825 24.4899 85.7497 24.4598C86.7651 24.4598 87.7504 24.4147 88.7031 24.3219L104.624 48.0847V27.5511C104.624 26.5984 104.609 26.0218 104.578 25.8212C104.548 25.6206 104.423 25.4677 104.21 25.3599C103.994 25.2521 103.257 25.1994 101.996 25.1994C100.888 25.1994 100.334 25.0615 100.334 24.7832C100.334 24.4749 100.702 24.3219 101.442 24.3219H103.057C103.455 24.3219 103.886 24.3219 104.348 24.3219C104.839 24.3219 105.133 24.3219 105.225 24.3219C105.255 24.3219 105.534 24.3219 106.055 24.3219C106.547 24.3219 107.008 24.3219 107.439 24.3219H108.871C109.548 24.3169 109.886 24.4698 109.886 24.7782Z" fill="#4C4B4B"/>
<path d="M136.374 32.5755C136.374 32.9766 136.189 33.1747 135.82 33.1747C135.452 33.1747 135.188 32.7761 135.035 31.9738C134.973 31.4197 134.913 30.8656 134.85 30.3115C134.634 29.2034 134.281 28.2657 133.789 27.496C133.142 26.4806 132.082 25.8338 130.605 25.558C129.652 25.3724 128.883 25.2972 128.299 25.3273C126.852 25.3674 125.974 25.4 125.669 25.4201V53.2896C125.669 54.4003 125.962 55.0923 126.546 55.3681C126.855 55.5235 127.714 55.6163 129.131 55.6463C129.5 55.6764 129.685 55.8068 129.685 56.0375C129.685 56.2982 129.439 56.4286 128.948 56.4286C128.702 56.4286 128.487 56.4135 128.301 56.3835C126.456 56.3233 125.147 56.2907 124.38 56.2907C123.365 56.2907 122.412 56.3133 121.519 56.3609C120.627 56.406 119.488 56.4311 118.105 56.4311C117.398 56.4311 117.044 56.3082 117.044 56.0625C117.044 55.7867 117.706 55.6313 119.027 55.6012C119.98 55.6012 120.597 55.4006 120.872 54.9995C121.025 54.7538 121.103 54.122 121.103 53.1041V25.4226C118.057 25.4527 116.167 25.6081 115.427 25.8839C113.489 26.5909 112.351 28.4838 112.012 31.5601C111.919 32.4827 111.704 32.9441 111.365 32.9441C110.997 32.9441 110.811 32.6206 110.811 31.9738C110.811 31.6353 110.826 31.2969 110.856 30.9584L110.949 29.8979C111.042 28.4838 111.18 26.621 111.365 24.3144H113.441L122.856 24.4523C123.964 24.4824 125.686 24.4824 128.023 24.4523L135.682 24.3144C135.742 26.0368 135.943 28.5916 136.281 31.9738C136.281 32.0666 136.296 32.1819 136.327 32.3198C136.359 32.4602 136.374 32.5454 136.374 32.5755Z" fill="#4C4B4B"/>
<path d="M162.17 52.7431C162.17 53.5428 162.125 54.8666 162.032 56.7119H161.526C161.34 56.7119 160.897 56.6818 160.19 56.6191C159.483 56.5564 158.685 56.5264 157.795 56.5264L138.636 56.3885C138.114 56.3885 137.853 56.2506 137.853 55.9723C137.853 55.7567 138.27 55.6188 139.099 55.5561C140.268 55.4959 140.967 55.3655 141.2 55.165C141.431 54.9644 141.546 54.3878 141.546 53.435V27.501C141.546 26.3628 141.431 25.7009 141.2 25.5154C140.97 25.3298 140.147 25.2396 138.731 25.2396C138.147 25.2396 137.853 25.0716 137.853 24.7331C137.853 24.4573 138.039 24.3169 138.407 24.3169H138.824C139.839 24.4097 141.852 24.4548 144.868 24.4548C145.144 24.4548 145.683 24.4323 146.483 24.3846C147.283 24.3395 147.945 24.3144 148.466 24.3144H148.973C149.527 24.3144 149.802 24.4699 149.802 24.7757C149.802 24.9613 149.717 25.0766 149.549 25.1217C149.379 25.1669 148.85 25.207 147.957 25.2371C147.065 25.2671 146.533 25.4151 146.365 25.6758C146.195 25.9366 146.112 26.7439 146.112 28.0977V55.3229C146.942 55.353 148.095 55.3681 149.572 55.3681C153.172 55.3681 155.709 55.1825 157.186 54.814C158.663 54.4454 159.663 53.7534 160.185 52.7381C160.706 51.7227 161.015 50.3537 161.107 48.6313C161.135 48.2327 161.313 48.0321 161.639 48.0321C162.022 48.0321 162.2 48.2628 162.17 48.7241V49.8774C162.17 49.9401 162.17 50.078 162.17 50.2936C162.17 50.5092 162.17 50.7248 162.17 50.9404V52.7431Z" fill="#4C4B4B"/>
<path d="M188.104 48.9573C188.104 49.0801 188.074 49.8348 188.012 51.2187C187.949 52.6027 187.919 53.9264 187.919 55.1875V56.7094C184.903 56.5238 178.936 56.4336 170.015 56.4336C168.937 56.4336 167.877 56.4336 166.831 56.4336C165.786 56.4336 165.079 56.4336 164.708 56.4336H164.246C163.662 56.4336 163.369 56.3107 163.369 56.0625C163.369 55.8971 163.461 55.8018 163.645 55.7742C163.737 55.7742 164.321 55.7341 165.397 55.6489C166.197 55.5887 166.681 55.4182 166.851 55.1399C167.019 54.8616 167.104 54.137 167.104 52.9637V26.952C167.104 26.0569 166.974 25.5254 166.713 25.3549C166.453 25.1844 165.613 25.1017 164.199 25.1017C163.707 25.1017 163.461 24.9713 163.461 24.7106C163.461 24.4498 163.8 24.3194 164.477 24.3194H172.367C172.643 24.3194 174.383 24.3194 177.582 24.3194C180.781 24.3194 182.935 24.3194 184.043 24.3194C184.965 24.3194 185.81 24.2568 186.58 24.1339C186.64 25.4577 186.781 27.2879 186.996 29.6246L187.182 31.6102C187.212 31.7657 187.227 31.9638 187.227 32.2095C187.227 32.5178 187.089 32.6708 186.811 32.6708C186.472 32.6708 186.226 32.2847 186.074 31.51C185.489 28.7245 184.534 26.9595 183.213 26.2148C182.228 25.6583 179.643 25.38 175.461 25.38H171.677V38.9462H172.786C176.23 38.9462 178.331 38.6854 179.084 38.1614C179.838 37.64 180.352 36.1156 180.63 33.5934C180.691 32.9466 180.861 32.6231 181.137 32.6231C181.475 32.6231 181.643 32.8989 181.643 33.453C181.643 34.0071 181.613 34.8219 181.551 35.8975C181.488 36.9756 181.458 37.7904 181.458 38.342C181.458 41.6339 181.508 43.8953 181.606 45.1263C181.631 45.4347 181.643 45.6954 181.643 45.9111C181.643 46.3122 181.475 46.5103 181.137 46.5103C180.921 46.5103 180.776 46.3799 180.701 46.1192C180.625 45.8584 180.493 45.0035 180.31 43.5594C180.064 41.7442 179.314 40.621 178.058 40.1897C177.507 40.0042 176.067 39.9139 173.741 39.9139H171.672V55.3731C178.439 55.3731 182.408 55.2377 183.579 54.9619C185.61 54.5056 186.763 52.5625 187.039 49.1277C187.099 48.3681 187.3 47.9895 187.638 47.9895C187.949 47.9895 188.104 48.3129 188.104 48.9573Z" fill="#4C4B4B"/>
<path d="M215.976 55.002C215.976 56.2932 214.898 56.94 212.747 56.94C210.348 56.94 208.47 55.9397 207.116 53.9415C206.532 53.0815 206.153 52.2491 205.985 51.4493C205.815 50.6496 205.562 48.6188 205.223 45.357C205.038 43.3888 204.408 41.9974 203.33 41.18C202.252 40.3652 200.5 39.9265 198.07 39.8638V54.4003C198.07 55.017 198.562 55.4006 199.547 55.5536C199.823 55.5836 200.532 55.6162 201.671 55.6463C202.069 55.6463 202.27 55.7692 202.27 56.0149C202.27 56.2907 202.009 56.4311 201.485 56.4311H200.931C200.655 56.4311 199.316 56.4311 196.917 56.4311C196.456 56.4311 195.671 56.4311 194.563 56.4311C193.485 56.4311 192.778 56.4311 192.439 56.4311H190.639C189.962 56.4311 189.624 56.2932 189.624 56.0149C189.624 55.7993 190.07 55.6764 190.962 55.6463C192.409 55.6162 193.194 55.4307 193.317 55.0922C193.44 54.9393 193.502 54.3376 193.502 53.2921V27.8194C193.502 26.5884 193.372 25.8513 193.111 25.6056C192.85 25.3599 192.058 25.222 190.734 25.1894C189.965 25.1894 189.581 25.0515 189.581 24.7732C189.581 24.4648 189.827 24.3119 190.318 24.3119C190.411 24.3119 190.549 24.3269 190.734 24.357L196.872 24.4949C197.486 24.4949 198.349 24.4749 199.457 24.4322C200.688 24.3495 201.548 24.3094 202.042 24.3094C204.902 24.3094 207.171 24.9487 208.849 26.2249C210.526 27.501 211.363 29.2334 211.363 31.4172C211.363 33.5708 210.501 35.3484 208.778 36.7474C207.056 38.1464 204.717 38.9712 201.763 39.2169C201.488 39.247 201.332 39.2947 201.302 39.3573C201.302 39.4802 201.455 39.5429 201.763 39.5429C204.993 40.0969 207.216 41.2327 208.432 42.9451C209.648 44.6575 210.456 47.7513 210.854 52.2241C211.1 54.7538 211.962 56.0174 213.439 56.0174C213.9 56.0174 214.131 55.9246 214.131 55.7416C214.131 55.7115 214.116 55.6814 214.086 55.6488C213.931 55.3104 213.855 55.0346 213.855 54.819C213.855 54.1721 214.194 53.8487 214.871 53.8487C215.605 53.8487 215.976 54.2348 215.976 55.002ZM206.424 31.8835C206.424 27.4834 204.516 25.2847 200.703 25.2847C199.687 25.2847 198.995 25.4226 198.627 25.7009C198.258 25.9766 198.073 26.4706 198.073 27.1776V38.8985C201.026 38.9286 203.157 38.3921 204.464 37.2839C205.77 36.1758 206.424 34.3756 206.424 31.8835Z" fill="#4C4B4B"/>
<path d="M46.8211 41.7993C46.8211 41.7567 46.7785 42.3433 46.6908 43.5568C46.5178 45.9888 46.43 48.4207 46.43 50.8501C46.43 51.1535 46.4726 51.7076 46.5604 52.5099C46.6481 53.3147 46.6908 54.2799 46.6908 55.4081V55.9948C46.6908 56.5589 46.5178 56.8422 46.1693 56.8422C45.8208 56.8422 45.5174 56.5163 45.2567 55.8644C44.6474 54.3451 44.0407 53.4124 43.434 53.0639C40.3075 55.7993 36.5518 57.1682 32.1668 57.1682C25.7836 57.1682 20.4985 54.9443 16.309 50.4916C12.1196 46.0414 10.0236 40.4304 10.0236 33.6561C10.0236 26.8391 11.9441 21.2707 15.7876 16.9509C19.631 12.631 24.5902 10.4699 30.6675 10.4699C32.8813 10.4699 34.6514 10.6554 35.9752 11.024C37.299 11.3925 38.9386 12.1422 40.8917 13.2704C41.8469 13.8345 42.5615 14.1178 43.0403 14.1178C43.4314 14.1178 43.8 13.7718 44.1485 13.0748C44.7126 11.8588 45.1689 11.2521 45.5174 11.2521C45.8634 11.2521 46.0389 11.4251 46.0389 11.7736C46.0389 11.9466 45.9963 12.2299 45.9085 12.621C45.4297 14.7045 45.1915 18.6131 45.1915 24.3445C45.1915 25.1693 45.1263 25.6482 44.9959 25.7761C44.8655 25.9039 44.6926 25.9716 44.4744 25.9716C44.0407 25.9716 43.7574 25.5604 43.627 24.7331C43.0629 21.2607 42.2606 18.6758 41.2176 16.9835C39.0891 13.5111 35.747 11.7736 31.189 11.7736C27.6715 11.7736 24.8935 12.9469 22.8527 15.2911C19.1622 19.5032 17.3169 25.6683 17.3169 33.7864C17.3169 41.0371 18.8363 46.6607 21.8749 50.6546C24.5225 54.1295 28.04 55.8644 32.425 55.8644C34.6815 55.8644 36.7449 55.3003 38.6127 54.1721C40.478 53.0439 41.9221 51.492 42.9426 49.5163C43.963 47.5407 44.7552 45.1639 45.3193 42.386C45.535 41.343 45.8183 40.824 46.1668 40.824C46.603 40.8215 46.8211 41.1474 46.8211 41.7993Z" fill="#4C4B4B"/>
</svg>
